<?xml version="1.0" standalone="no"?>
<!DOCTYPE svg PUBLIC "-//W3C//DTD SVG 20010904//EN"
 "http://www.w3.org/TR/2001/REC-SVG-20010904/DTD/svg10.dtd">
<svg version="1.0" xmlns="http://www.w3.org/2000/svg"
 width="512.000000pt" height="512.000000pt" viewBox="0 0 512.000000 512.000000"
 preserveAspectRatio="xMidYMid meet">
<metadata>
Created by potrace 1.11, written by Peter Selinger 2001-2013
</metadata>
<g transform="translate(0.000000,512.000000) scale(0.100000,-0.100000)"
fill="#000000" stroke="none">
<path d="M2517 5114 c-1 -1 -54 -4 -117 -8 -63 -3 -128 -8 -145 -10 -16 -3
-52 -8 -80 -12 -27 -4 -54 -8 -60 -10 -5 -1 -26 -4 -45 -7 -58 -10 -260 -64
-336 -91 -159 -56 -327 -133 -462 -213 -638 -377 -1087 -1016 -1216 -1733 -25
-138 -26 -142 -33 -225 -10 -104 -10 -386 1 -495 6 -70 30 -222 50 -315 19
-92 114 -387 130 -402 3 -3 110 55 238 127 128 73 253 144 278 158 25 14 50
28 55 32 6 4 35 21 65 38 30 16 179 101 330 187 151 87 291 166 310 177 41 22
65 37 100 59 63 41 66 39 114 -63 24 -51 70 -147 101 -213 31 -66 73 -154 92
-195 19 -41 52 -111 73 -155 21 -44 70 -147 108 -228 61 -130 71 -145 76 -120
5 26 53 304 63 368 2 17 6 41 9 55 2 14 9 52 14 85 5 33 12 74 15 90 8 42 23
134 29 170 3 17 15 84 26 150 12 66 23 131 25 145 11 76 17 107 20 120 3 8 7
33 10 55 4 22 15 90 25 150 11 61 21 124 24 140 29 177 50 297 66 385 10 58
21 121 24 140 6 33 8 51 22 130 10 55 12 73 18 110 3 19 10 58 15 85 5 28 12
70 16 95 3 25 8 52 10 60 2 8 7 35 10 60 3 25 8 52 10 60 5 16 10 49 20 120 4
24 8 47 10 51 2 3 59 4 127 3 68 -1 276 -5 463 -9 187 -3 428 -8 535 -10 683
-15 770 -16 770 -6 0 13 -249 264 -308 311 -24 19 -56 45 -70 58 -53 45 -263
182 -369 240 -314 171 -673 275 -1021 298 -99 6 -232 11 -235 8z"/>
<path d="M4036 4083 c-1 -1 -148 -5 -326 -8 -179 -3 -410 -8 -515 -10 -104 -2
-227 -5 -273 -6 -45 -1 -84 -5 -87 -8 -2 -4 -9 -39 -15 -77 -6 -38 -13 -82
-16 -99 -2 -16 -6 -41 -9 -55 -2 -14 -6 -41 -9 -60 -5 -36 -84 -516 -91 -560
-3 -14 -7 -45 -11 -70 -3 -25 -7 -52 -10 -61 -3 -9 -7 -34 -9 -55 -3 -22 -7
-50 -10 -64 -2 -14 -7 -41 -10 -60 -3 -19 -7 -46 -10 -60 -3 -14 -7 -41 -10
-60 -3 -19 -12 -75 -20 -125 -15 -90 -73 -448 -80 -495 -2 -14 -16 -97 -30
-185 -14 -88 -28 -171 -30 -185 -2 -14 -16 -97 -30 -185 -14 -88 -28 -171 -30
-185 -2 -14 -11 -65 -19 -115 -8 -49 -17 -108 -21 -130 -3 -22 -7 -47 -10 -55
-2 -8 -6 -35 -9 -60 -3 -25 -8 -56 -10 -70 -3 -14 -7 -41 -10 -60 -3 -19 -8
-46 -10 -60 -3 -14 -17 -101 -32 -195 l-28 -169 -45 95 c-25 52 -77 160 -115
239 -38 80 -112 233 -164 340 -52 107 -116 240 -142 295 -26 55 -95 198 -154
319 -58 120 -106 221 -106 225 0 3 -7 14 -14 24 -13 17 -19 15 -112 -26 -169
-76 -217 -98 -279 -127 -33 -16 -91 -43 -130 -60 -38 -18 -198 -91 -355 -162
-157 -72 -309 -141 -338 -154 l-52 -24 48 -92 c276 -527 721 -940 1265 -1172
92 -39 323 -118 381 -131 125 -26 231 -45 279 -50 32 -4 68 -9 80 -11 12 -3
110 -7 217 -9 244 -3 371 10 635 65 76 16 245 70 346 110 720 287 1273 883
1501 1620 36 116 46 160 73 305 42 225 50 549 20 768 -56 417 -193 775 -428
1122 l-54 80 -287 0 c-158 0 -289 -1 -290 -2z"/>
</g>
</svg>
