<?xml version="1.0" standalone="no"?>
<!DOCTYPE svg PUBLIC "-//W3C//DTD SVG 20010904//EN"
 "http://www.w3.org/TR/2001/REC-SVG-20010904/DTD/svg10.dtd">
<svg version="1.0" xmlns="http://www.w3.org/2000/svg"
 width="512.000000pt" height="512.000000pt" viewBox="0 0 512.000000 512.000000"
 preserveAspectRatio="xMidYMid meet">
<metadata>
Created by potrace 1.11, written by Peter Selinger 2001-2013
</metadata>
<g transform="translate(0.000000,512.000000) scale(0.100000,-0.100000)"
fill="#000000" stroke="none">
<path d="M2315 5109 c-720 -74 -1370 -439 -1799 -1009 -505 -670 -649 -1543
-386 -2340 127 -387 332 -720 621 -1009 405 -405 902 -649 1494 -733 118 -17
512 -17 630 0 592 84 1088 328 1494 733 405 406 649 902 733 1494 17 118 17
512 0 630 -84 592 -328 1088 -733 1494 -396 395 -881 639 -1449 726 -126 19
-477 28 -605 14z m625 -104 c404 -65 788 -229 1119 -478 98 -74 318 -280 373
-350 l32 -40 -355 7 c-195 3 -442 8 -549 11 -107 3 -362 7 -567 11 l-372 6 -6
-23 c-3 -13 -41 -238 -85 -499 -45 -261 -110 -644 -145 -850 -35 -206 -103
-602 -150 -879 -47 -278 -87 -507 -90 -509 -3 -3 -22 33 -44 79 -134 289 -423
895 -431 903 -5 5 -298 -157 -695 -383 -377 -215 -691 -392 -697 -394 -30 -6
-140 374 -174 598 -22 149 -25 503 -5 645 91 657 407 1224 907 1626 378 304
801 477 1314 538 89 10 519 -2 620 -19z m1684 -1082 c203 -307 342 -683 391
-1056 17 -135 20 -445 5 -582 -119 -1071 -920 -1944 -1978 -2155 -573 -114
-1177 -21 -1677 257 -350 196 -651 472 -872 803 -67 101 -175 298 -171 312 2
6 114 61 249 123 134 61 405 185 602 274 197 90 359 162 361 160 3 -4 340
-703 624 -1295 54 -111 100 -200 105 -197 4 2 7 13 7 24 0 12 61 395 135 852
74 458 198 1221 275 1696 77 476 141 866 143 867 3 3 1279 31 1523 33 l201 1
77 -117z"/>
</g>
</svg>
